<svg width="57" height="57" fill="none" xmlns="http://www.w3.org/2000/svg"><path d="M56.05 0h-28.5a.95.95 0 00-.95.95v16.207a7.944 7.944 0 00-1.9 0V13.3a.95.95 0 00-.95-.95h-3.857c.038-.315.057-.633.057-.95a8.423 8.423 0 00-.21-1.843c.39 0 .77-.057 1.16-.057 1.197 0 2.389.16 3.543.475l.513-1.824A15.03 15.03 0 0020.9 7.6c-.6.004-1.2.042-1.796.114a8.55 8.55 0 10-12.72 10.592A14.915 14.915 0 005.7 22.8v.684L.133 32.766A.95.95 0 00.95 34.2H5.7v4.75a2.85 2.85 0 002.85 2.85h6.764l.731 5.852-9.785 1.501a4.748 4.748 0 00-3.23 2.071L.18 55.528a.95.95 0 000 .95.95.95 0 00.77.522h34.2a.95.95 0 00.95-.95V32.3h-1.9v22.8H2.726l1.9-2.85a2.85 2.85 0 011.9-1.245L17.242 49.4a.95.95 0 00.808-1.064l-.95-7.6a.95.95 0 00-.95-.836h-7.6a.95.95 0 01-.95-.95v-5.7a.95.95 0 00-.95-.95H2.63l4.836-8.065a.95.95 0 00.133-.485v-.95c.005-1.188.168-2.37.484-3.515a8.55 8.55 0 005.216.447V22.8a.95.95 0 00.95.95h3.068a8.324 8.324 0 00-.218 1.9 8.55 8.55 0 0015.656 4.75H39.9v19.95a6.65 6.65 0 1013.3 0V30.4h2.85a.95.95 0 00.95-.95V.95a.95.95 0 00-.95-.95zM4.75 11.4a6.65 6.65 0 0112.407-3.316 15.2 15.2 0 00-10.051 8.38A6.65 6.65 0 014.75 11.4zm6.65 6.65a6.65 6.65 0 01-2.68-.57 13.346 13.346 0 019.14-7.6c.204.807.242 1.647.114 2.47H14.25a.95.95 0 00-.95.95v4.474a6.903 6.903 0 01-1.9.276zm5.994-3.8a6.698 6.698 0 01-2.194 2.603V14.25h2.194zm-2.194 7.6v-2.803a8.597 8.597 0 004.256-4.797H22.8v3.354a8.55 8.55 0 00-4.75 4.246H15.2zm7.6-2.195v2.195h-2.603a6.698 6.698 0 012.603-2.195zM25.65 32.3a6.65 6.65 0 01-6.375-8.55h4.475a.95.95 0 00.95-.95v-3.724a5.977 5.977 0 011.9 0V29.45a.95.95 0 00.95.95h2.745a6.65 6.65 0 01-4.645 1.9zm5.994-3.8H28.5v-8.845a6.649 6.649 0 013.8 5.995 6.53 6.53 0 01-.656 2.85zM47.5 14.25v34.2h-1.9v-34.2h1.9zm1.9 0h1.9v34.2h-1.9v-34.2zm-6.774-1.9l3.924-5.89 3.923 5.89h-7.847zm-.826 1.9h1.9v34.2h-1.9v-34.2zm4.75 40.85a4.75 4.75 0 01-4.75-4.75h9.5a4.75 4.75 0 01-4.75 4.75zm8.55-26.6h-1.9V13.3a.948.948 0 00-.162-.523l-5.7-8.55a.95.95 0 00-1.577 0l-5.7 8.55a.95.95 0 00-.161.523v15.2h-6.194A8.55 8.55 0 0028.5 17.594V1.9h26.6v26.6z" fill="#DAC08E"/><path d="M38 3.8h1.9v1.9H38V3.8zm-3.8 0h1.9v1.9h-1.9V3.8zm-3.8 0h1.9v1.9h-1.9V3.8zM38 7.6h1.9v1.9H38V7.6zm-3.8 0h1.9v1.9h-1.9V7.6zm-3.8 0h1.9v1.9h-1.9V7.6zm3.8 3.8h1.9v1.9h-1.9v-1.9zm-3.8 0h1.9v1.9h-1.9v-1.9zm3.8 3.8h1.9v1.9h-1.9v-1.9zm-3.8 0h1.9v1.9h-1.9v-1.9z" fill="#DAC08E"/></svg>