<svg width="147" height="83" fill="none" xmlns="http://www.w3.org/2000/svg"><path d="M55.694 77.092a1.66 1.66 0 00.283-.629c.045-.219.07-.413.07-.583 0-.24-.03-.484-.083-.732a1.675 1.675 0 00-.29-.65 1.437 1.437 0 00-.574-.459c-.238-.107-.533-.165-.89-.165h-.88v3.959h.639c.45 0 .815-.07 1.098-.211.283-.14.492-.314.635-.525m1.901-1.527c0 .467-.09.881-.27 1.241-.18.36-.434.658-.754.894-.316.235-.664.41-1.045.517a4.42 4.42 0 01-1.209.165h-.995v2.718c0 .15.024.277.073.389.05.112.148.199.295.257.074.028.21.057.398.082.188.025.365.042.524.046v.447h-3.81v-.447c.098-.008.245-.025.434-.046.188-.02.324-.05.398-.082a.522.522 0 00.27-.24.839.839 0 00.082-.406V74.64c0-.149-.02-.281-.062-.397-.04-.116-.139-.207-.295-.265a2.524 2.524 0 00-.47-.116 7.134 7.134 0 00-.407-.045v-.447h4.053c.828 0 1.496.203 2.012.604.516.401.774.94.774 1.605m8.355 3.283c-.357.108-.664.211-.934.31a3.83 3.83 0 00-.746.377 1.767 1.767 0 00-.496.509c-.123.194-.18.43-.18.7 0 .35.09.607.27.773.18.165.41.248.693.248.295 0 .557-.075.782-.22a2.28 2.28 0 00.57-.516l.037-2.185.004.004zm2.184 3.335c-.197.07-.369.128-.516.174a1.86 1.86 0 01-.504.066c-.324 0-.586-.079-.779-.232-.192-.153-.32-.376-.373-.67h-.037a3.08 3.08 0 01-.872.695c-.312.161-.685.24-1.123.24-.463 0-.844-.145-1.143-.43-.3-.286-.447-.662-.447-1.126 0-.24.033-.455.098-.645.066-.19.168-.36.3-.509.102-.128.241-.24.413-.34.172-.098.332-.177.48-.235a50.1 50.1 0 011.143-.397c.574-.194.959-.343 1.16-.455v-.625c0-.053-.013-.161-.033-.314a1.406 1.406 0 00-.148-.443 1.181 1.181 0 00-.352-.405c-.152-.116-.369-.174-.648-.174-.192 0-.368.033-.532.1-.164.066-.283.132-.348.206 0 .083.02.207.06.373.042.165.058.314.058.455 0 .148-.065.28-.196.405-.132.124-.316.182-.55.182-.208 0-.36-.075-.458-.223a.886.886 0 01.057-1.06 1.97 1.97 0 01.529-.471c.188-.116.413-.215.68-.298.266-.083.528-.124.782-.124.353 0 .656.025.918.075.262.05.496.152.71.314.212.157.372.368.483.633.11.265.168.612.168 1.034 0 .604-.009 1.133-.02 1.601-.013.463-.021.972-.021 1.526 0 .166.028.294.086.394a.717.717 0 00.258.248.63.63 0 00.295.062c.135.004.274.008.418.008v.406l.004-.021zm6.662-8.642c0 .24-.077.45-.233.628a.74.74 0 01-1.13.013.838.838 0 01-.234-.583c0-.232.077-.435.233-.604a.72.72 0 01.553-.261c.238 0 .435.083.586.244.152.161.23.352.23.567m.782 8.758h-2.979v-.418l.3-.025c.102-.008.188-.025.266-.05a.427.427 0 00.258-.198.699.699 0 00.086-.368v-3.843a.802.802 0 00-.09-.369.871.871 0 00-.254-.281 1.078 1.078 0 00-.344-.128 2.373 2.373 0 00-.414-.067v-.417l2.176-.137.086.087v5.076c0 .149.028.269.082.368a.53.53 0 00.262.215c.09.038.18.07.266.091.086.025.184.038.291.046v.418h.008zm11.412-.005h-3.016v-.417c.094-.009.2-.017.316-.025a1.17 1.17 0 00.282-.05.427.427 0 00.258-.198.708.708 0 00.086-.369v-3.202c0-.442-.102-.782-.311-1.021-.209-.24-.459-.36-.754-.36-.221 0-.426.037-.61.103-.185.07-.349.153-.488.257a1.33 1.33 0 00-.328.31 3.67 3.67 0 00-.18.269v3.582c0 .141.028.26.09.356a.553.553 0 00.262.215c.086.042.18.075.283.095.102.021.209.038.316.046v.418h-3.02v-.418l.295-.025c.102-.008.192-.025.266-.05a.427.427 0 00.258-.198.698.698 0 00.086-.368v-3.844a.893.893 0 00-.09-.393.795.795 0 00-.254-.293.884.884 0 00-.283-.112 1.826 1.826 0 00-.352-.046v-.417l2.053-.137.086.087v.877h.032c.099-.1.226-.223.377-.364a3.11 3.11 0 01.427-.343c.155-.104.34-.186.549-.253a2.43 2.43 0 01.72-.103c.595 0 1.03.186 1.316.558.287.373.426.87.426 1.49v3.239c0 .149.025.265.078.356.05.09.135.161.258.21.099.042.185.07.258.088.074.016.177.028.304.037v.418l.004-.005zm8.408-.272a8.18 8.18 0 01-.77.285 2.903 2.903 0 01-.89.116c-.516 0-.88-.133-1.09-.393-.212-.265-.315-.633-.315-1.113v-4.22h-1.114v-.608h1.139v-1.94h1.139v1.94h1.77v.608h-1.758v3.48c0 .26.008.48.029.653.02.174.061.327.135.46a.632.632 0 00.3.276c.134.063.31.096.536.096.102 0 .258-.009.459-.03.2-.02.344-.04.43-.074v.464zM78.775 28.388h.873v-.57l-.873.169v.401zm.873.708v-.439h-.873v.369l.873.07zm.291-.708h.988v-.401l-.988-.178v.58zm.988.27h-.988v.769l-1.61-.203V27.88l1.483-.41 1.55.315 1.421.832v.786l-1.422.124-.438-.025v-.844h.004zm52.3 33.834h-2.479c-1.295 0-2.405-.558-3.139-1.576-.479-.666-.979-1.352-1.491-2.068a77.532 77.532 0 00-2.918-3.785l-1.286 1.15v3.537c0 .36.069.661.204.897.136.24.353.41.664.522.246.099.488.173.721.227.177.037.377.066.599.087a.227.227 0 01.205.22v.57c0 .12-.103.22-.23.22h-7.207c-.127 0-.23-.1-.23-.22v-.57c0-.117.086-.208.209-.22l.545-.05a3.83 3.83 0 00.664-.115c.291-.096.512-.249.66-.476.147-.228.221-.521.221-.89V42.611c0-.377-.082-.729-.25-1.055-.164-.327-.377-.58-.643-.75-.226-.16-.57-.268-1.045-.318a34.61 34.61 0 00-1.139-.103v-.993l5.826-.34.222.228v15.824c.819-.786 1.708-1.626 2.659-2.528a51.644 51.644 0 002.405-2.412c.086-.086.18-.206.275-.355.102-.145.151-.265.151-.356 0-.273-.225-.476-.684-.604a8.02 8.02 0 00-1.127-.248.222.222 0 01-.197-.22v-.583c0-.12.103-.22.23-.22h6.372c.127 0 .229.1.229.22v.546l-.16.211c-.811.244-1.54.55-2.171.91-.677.385-1.193.728-1.549 1.034-.254.207-.611.534-1.074.99a55.5 55.5 0 01-1.946 1.778 85.466 85.466 0 012.913 3.661 409.42 409.42 0 002.356 3.082c.463.596.877.985 1.25 1.163.332.161.795.264 1.397.314a.22.22 0 01.209.22v.57c0 .12-.102.22-.229.22m-23.208-8.253c-.902.252-1.693.5-2.373.736-.68.244-1.311.55-1.893.91a4.256 4.256 0 00-1.258 1.22c-.623.956-.696 2.727.226 3.521.458.393 1.04.588 1.749.588.75 0 1.406-.174 1.975-.522a5.557 5.557 0 001.443-1.233l.131-5.22zm5.376 8.034a16.66 16.66 0 01-1.164.364 4.67 4.67 0 01-1.283.161c-.831 0-1.491-.186-1.983-.554-.496-.369-.815-.906-.95-1.614h-.099c-.68.728-1.409 1.283-2.196 1.66-.779.376-1.725.566-2.831.566-1.164 0-2.123-.343-2.873-1.03-.75-.683-1.127-1.58-1.127-2.69 0-2.225 1.238-3.358 3.274-4.136 1.897-.683 4.004-1.142 5.819-1.816V51.48c0-.136-.029-.38-.086-.753a3.086 3.086 0 00-.373-1.054 3.14 3.14 0 00-.902-.973c-.389-.273-.938-.413-1.651-.413-.483 0-.938.074-1.356.231-1.549.58-.582 1.097-.582 2.458 0 1.613-3.397 2.267-3.397-.335 0-1.072.979-1.932 1.856-2.462.476-.285 1.045-.521 1.725-.72a7.1 7.1 0 011.975-.294c.885 0 1.664.058 2.32.174.663.116 1.262.36 1.798.745a3.5 3.5 0 011.221 1.522c.283.642.422 1.46.422 2.47 0 1.44-.016 2.714-.049 3.83a126.989 126.989 0 00-.049 3.65c0 .393.07.703.213.934.14.232.361.427.656.592.16.087.41.137.754.149.27.008.545.012.832.012.122 0 .229.1.229.22v.6l-.156.206.013.009zm-16.112-5.937l-.443 5.95a.225.225 0 01-.23.202H82.55c-.127 0-.23-.1-.23-.22v-.665a.22.22 0 01.21-.22c.229-.02.524-.05.88-.087.471-.05.807-.12.992-.202.315-.128.545-.319.684-.575.14-.253.21-.575.21-.964V44.19c0-.347-.062-.645-.177-.91-.123-.26-.36-.471-.717-.637-.238-.12-.578-.236-1.008-.352a6.308 6.308 0 00-.873-.186.222.222 0 01-.197-.219v-.67c0-.12.103-.22.23-.22h8.986c.127 0 .23.1.23.22v.658a.22.22 0 01-.21.219c-.262.02-.573.066-.938.136-.471.091-.811.17-1.024.244-.357.125-.603.331-.734.621-.135.294-.2.604-.2.939v14.421c0 .666.032 1.183.102 1.556.07.368.221.657.48.852.552.418 2.642.443 3.322.41.422-.021.82-.058 1.197-.116 2.22-.352 3.815-2.487 4.364-4.886a.226.226 0 01.225-.174h.697l.168.07.061.166-.004.008zm-23.942-1.138c.43.36.762.782.992 1.258.23.476.344 1.055.344 1.738 0 1.381-.537 2.51-1.61 3.392-1.074.873-2.463 1.311-4.176 1.311-.905 0-1.737-.161-2.495-.484-.762-.318-1.3-.616-1.627-.877l-.262.832-.217.157h-.808a.226.226 0 01-.23-.211l-.147-4.737.066-.161.164-.066h.68l.221.165c.095.356.259.765.496 1.22.275.53.602 1.01.988 1.432.41.45.901.827 1.47 1.133.574.306 1.213.455 1.927.455 1.003 0 1.778-.219 2.323-.662.545-.438.815-1.075.815-1.898 0-.422-.086-.786-.258-1.097a2.48 2.48 0 00-.762-.806 6.097 6.097 0 00-1.27-.63 25.667 25.667 0 00-1.684-.545 16.717 16.717 0 01-1.644-.584 6.914 6.914 0 01-1.548-.868 4.2 4.2 0 01-1.127-1.303c-.295-.51-.443-1.117-.443-1.812 0-1.22.476-2.247 1.418-3.095.942-.848 2.209-1.27 3.794-1.27.61 0 1.234.079 1.869.228.635.149 1.151.33 1.553.542l.303-.7.213-.136h.758c.123 0 .225.091.23.211l.204 4.369-.061.16-.164.067h-.676a.222.222 0 01-.221-.17c-.234-.984-.693-1.79-1.381-2.42-.721-.666-1.606-1.005-2.651-1.005-.857 0-1.533.207-2.024.625-.488.413-.73.918-.73 1.51 0 .45.082.831.242 1.133.164.306.406.559.733.77a5.96 5.96 0 001.189.57c.475.174 1.061.377 1.762.596.696.211 1.348.46 1.954.745.615.281 1.123.596 1.516.935m-13.489-.017c.43.36.758.782.992 1.258.233.476.344 1.055.344 1.738 0 1.381-.537 2.51-1.61 3.392-1.074.873-2.467 1.311-4.176 1.311a6.32 6.32 0 01-2.495-.484c-.758-.318-1.3-.616-1.627-.877l-.262.832-.221.157h-.804a.226.226 0 01-.23-.211l-.15-4.737.065-.161.164-.066h.684l.221.165c.095.356.258.765.496 1.22.275.53.602 1.01.988 1.432.41.45.901.827 1.47 1.133.574.306 1.213.455 1.926.455 1.004 0 1.779-.219 2.324-.662.545-.438.815-1.075.815-1.898 0-.422-.086-.786-.258-1.097a2.48 2.48 0 00-.762-.806 6.097 6.097 0 00-1.27-.63 25.667 25.667 0 00-1.684-.545 16.717 16.717 0 01-1.644-.584 6.912 6.912 0 01-1.548-.868 4.2 4.2 0 01-1.127-1.303c-.3-.51-.443-1.117-.443-1.812 0-1.22.471-2.247 1.418-3.095.942-.848 2.209-1.27 3.794-1.27.61 0 1.23.079 1.865.228.635.149 1.151.33 1.553.542l.303-.7.213-.136h.758c.123 0 .225.091.23.211l.204 4.369-.061.16-.168.067h-.672a.234.234 0 01-.225-.17c-.234-.984-.693-1.79-1.381-2.42-.726-.666-1.607-1.005-2.651-1.005-.857 0-1.529.207-2.02.625-.492.413-.734.918-.734 1.51 0 .45.082.831.242 1.133.16.306.401.559.733.77a6.04 6.04 0 001.184.57c.476.174 1.062.377 1.762.596.697.211 1.348.46 1.955.745.614.281 1.123.596 1.516.935m-12.321 7.359h-7.11a.226.226 0 01-.229-.22v-.57c0-.116.09-.207.21-.22.18-.012.36-.029.544-.045.258-.02.48-.058.668-.12.3-.091.516-.248.66-.476.143-.227.217-.521.217-.885V50.007c0-1.113-.574-1.088-1.54-1.167a20.48 20.48 0 01-.546-.045.22.22 0 01-.209-.22v-.57c0-.12.103-.211.23-.22l4.814-.31a.22.22 0 01.23.22v12.162c0 .351.07.645.209.877.143.231.364.405.668.517.23.087.459.157.68.215.164.041.344.075.537.095.114.013.2.108.2.22v.57c0 .12-.102.22-.229.22M40.32 48.564c-.39.07-.8.236-1.242.508-.508.31-.88.782-1.11 1.407-.529 1.477-1.025 2.883-1.496 4.207-.463 1.328-.991 2.818-1.57 4.472a56.743 56.743 0 00-.577 1.696 58.682 58.682 0 00-.48 1.577l-.22.16h-1.03l-.216-.144-4.11-10.805-4.159 10.81-.217.14h-.975l-.218-.149c-.77-2.188-1.524-4.36-2.261-6.511-.75-2.201-1.418-4.12-1.996-5.75-.168-.477-.492-.849-.959-1.118a3.736 3.736 0 00-1.188-.459.217.217 0 01-.184-.215v-.583c0-.12.102-.22.229-.22h6.49c.128 0 .23.1.23.22v.624a.22.22 0 01-.209.22 5.6 5.6 0 00-.914.153c-.405.103-.61.264-.61.496 0 .041.02.128.053.257.037.128.086.273.131.426.344 1.05.721 2.238 1.143 3.54.426 1.304.976 2.992 1.652 5.077l3.93-10.558.216-.144h1.21l.216.144 3.963 10.367a190.83 190.83 0 011.344-3.892 80.924 80.924 0 001.385-4.253 2.22 2.22 0 00.102-.641c0-.178-.086-.34-.254-.484a2.362 2.362 0 00-.623-.348 3.6 3.6 0 00-.684-.182 16.9 16.9 0 00-.34-.05.223.223 0 01-.205-.219v-.533c0-.12.102-.22.23-.22h5.478c.127 0 .23.1.23.22v.55a.217.217 0 01-.19.215m-26.318 4.054a5 5 0 011.05 1.659c.224.6.34 1.295.34 2.097 0 1.895-.734 3.463-2.193 4.692-1.463 1.236-3.278 1.849-5.446 1.849-1.003 0-2-.15-3.003-.451-.996-.302-1.86-.666-2.59-1.092l-.614.997-.197.107H.443a.227.227 0 01-.23-.215L0 55.361l.066-.158.168-.066h.885l.22.157c.255.84.542 1.61.874 2.296a8.772 8.772 0 001.397 2.048 6.287 6.287 0 001.922 1.423c.725.352 1.577.53 2.548.53.722 0 1.36-.096 1.897-.273.546-.182.98-.435 1.32-.77.336-.33.582-.72.75-1.166.16-.451.242-.964.242-1.552 0-.852-.255-1.65-.755-2.39-.503-.741-1.257-1.304-2.257-1.685-.684-.264-1.467-.554-2.352-.873a32.468 32.468 0 01-2.287-.901c-1.266-.546-2.25-1.262-2.942-2.143-.7-.886-1.049-2.044-1.049-3.463 0-.819.173-1.58.525-2.288a5.94 5.94 0 011.48-1.894 6.948 6.948 0 012.163-1.237 7.747 7.747 0 012.602-.443c1.028 0 1.954.157 2.77.46a14 14 0 012.233 1.063l.577-.923.197-.108h.906c.127 0 .225.096.23.216l.122 6.693-.066.157-.163.067h-.886l-.22-.162a27.205 27.205 0 00-.738-2.184 8.176 8.176 0 00-1.127-2.027 5.096 5.096 0 00-1.656-1.398c-.655-.348-1.45-.522-2.4-.522-.996 0-1.849.302-2.558.919-.704.616-1.053 1.369-1.053 2.25 0 .93.226 1.696.68 2.304.451.608 1.111 1.113 1.971 1.506.767.352 1.52.662 2.266.915.742.256 1.463.537 2.16.827.63.265 1.237.563 1.82.893a6.97 6.97 0 011.52 1.167m33.78-8.526c0 .58-.213 1.08-.627 1.51-.418.43-.93.646-1.545.646a2.048 2.048 0 01-1.475-.617c-.414-.41-.627-.873-.627-1.402 0-.555.209-1.043.627-1.457.414-.413.91-.62 1.475-.62.64 0 1.156.198 1.562.583.405.389.61.844.61 1.353m95.558 9.221c0-.563-.049-1.167-.152-1.808-.098-.645-.258-1.183-.479-1.613a3.13 3.13 0 00-1-1.134c-.422-.294-.963-.438-1.626-.438-1.111 0-2.033.438-2.762 1.315-.734.881-1.131 2.102-1.197 3.674h7.216v.004zm3.422 5.858a7.771 7.771 0 01-2.529 2.664c-1.094.707-2.36 1.059-3.782 1.059-1.258 0-2.356-.211-3.306-.637-.947-.422-1.721-.997-2.336-1.721A7.204 7.204 0 01133.44 58a10.204 10.204 0 01-.454-3.066c0-.972.163-1.923.487-2.854.316-.93.791-1.77 1.414-2.515a6.807 6.807 0 012.241-1.734c.889-.438 1.893-.653 3-.653 1.106 0 2.118.17 2.933.517.808.343 1.471.81 1.98 1.406a5.451 5.451 0 011.081 1.994c.238.766.357 1.597.357 2.495v.778c0 .12-.103.219-.23.219h-10.121c0 .984.099 1.87.3 2.668a6.19 6.19 0 00.926 2.11 4.41 4.41 0 001.618 1.386c.668.335 1.463.509 2.385.509.922 0 1.758-.211 2.438-.637.643-.393 1.262-1.084 1.86-2.081l.144-.104.176.025.713.422.078.294-.004-.004zm-99.485 18.69h-9.354v.794h9.354v-.794zm61.353 0h-9.503v.794h9.503v-.794zm-5.2-53.953l-.942-1.61.18-.107.147.215.156.161.18.05.177-.054 2.618-1.563-.025-.038-3.79.6-.074-.128 2.438-3.049-.02-.033-2.147 1.282a2.511 2.511 0 00-.451.323l-.164.26a.727.727 0 00.037.294c.033.137.061.224.082.261l-.18.108-.861-1.465.185-.107.18.219.197.145c.082.033.18.029.29-.009a3.07 3.07 0 00.513-.26l1.839-1.1.238-.195.098-.207-.012-.257-.094-.252.18-.107.725 1.237-2.097 2.647 2.782-.463.311-.07.201-.07.697 1.186-.181.108-.131-.17-.135-.136-.168-.058-.172.062-2.59 1.547-.131.12-.037.182.049.195.086.198-.18.108h-.004zm-1.274-9.209l-.197-.149-.25-.116c-.078-.016-.176.017-.295.1-.119.082-.25.194-.397.339l-1.3 1.286a1.175 1.175 0 01-.532.323 1.246 1.246 0 01-.566.025 1.58 1.58 0 01-.504-.194 1.916 1.916 0 01-.397-.307 2.151 2.151 0 01-.397-.554 1.491 1.491 0 01-.156-.546 1.14 1.14 0 01.065-.488 1.08 1.08 0 01.254-.393l1.767-1.746.102-.149v-.19l-.094-.186-.11-.162.15-.149 1.218 1.254-.152.149-.164-.133-.16-.099-.176-.017-.151.104-1.652 1.634-.225.277a.85.85 0 00-.11.761c.044.145.143.298.307.468.151.157.303.265.454.322.152.058.3.08.439.058a.978.978 0 00.356-.111l.287-.211 1.225-1.212a2.37 2.37 0 00.349-.414c.077-.12.11-.22.098-.294l-.115-.285-.156-.232.152-.149 1.192 1.229-.151.149-.008.008zm-7.847-2.023l-1.492-1.158.127-.17.193.124.189.104h.176l.143-.116L95.49 9.04l.078-.158-.053-.186-.136-.19-.151-.165.13-.17 1.492 1.158-.13.17-.185-.116-.205-.095h-.193l-.135.116-1.844 2.42-.07.161.046.186.127.166.168.17-.127.169.008.004zm-3.725-2.71l-1.655-.843.094-.19.238.099.217.053.176-.053.119-.145 1.368-2.739-.04-.02L88.224 8.7l-.131-.066.426-3.897-.033-.016-1.122 2.25c-.111.215-.177.39-.205.517a.546.546 0 000 .306l.184.228.21.174-.095.19-1.508-.765.098-.19.267.086.246.013.237-.162c.074-.09.172-.256.291-.496l.963-1.928a.835.835 0 00.094-.294l-.024-.231-.148-.207-.213-.161.094-.19 1.27.649-.352 3.371 2.094-1.903.221-.227.131-.174 1.221.62-.094.19-.2-.07-.185-.045-.176.041-.11.145-1.357 2.718-.045.174.065.174.144.132.18.124-.094.19h.016zm-6.642-4.352l-.405 1.18-3.344-.931.057-.207.234.037.197.012.16-.078.085-.166.795-2.92.013-.178-.099-.157-.188-.124-.197-.091.057-.207 3.119.868-.267.98-.217-.057c0-.157-.037-.335-.119-.53-.082-.198-.176-.318-.286-.368l-.205-.074-.279-.083-.631-.174-.438 1.618.45.124a.903.903 0 00.328.045l.213-.09.168-.195.131-.244.217.058-.434 1.593-.213-.063c.016-.095.025-.194.016-.306a.864.864 0 00-.04-.252l-.16-.203a1.175 1.175 0 00-.283-.116l-.455-.124-.332 1.22a1.49 1.49 0 00-.053.299l.053.19.18.128c.082.033.205.075.361.116l.246.066.262.062.234.02.184-.036a1.85 1.85 0 00.39-.34c.147-.157.245-.28.294-.36l.201.058zm-7.371-3.446c.016-.252-.041-.459-.18-.62-.136-.157-.337-.248-.599-.265l-.5-.033-.115 1.804.386.025a.93.93 0 00.692-.22c.189-.165.3-.397.316-.695m1.344 3.244l-1.123-.075a28.58 28.58 0 00-.606-1.067 21.81 21.81 0 00-.595-.931l-.426-.029-.086 1.336.02.182.132.129.18.05.221.032-.016.211-1.758-.116.016-.21.205-.009.189-.025.135-.103.053-.186.197-3.045-.016-.186-.132-.133-.184-.062-.197-.04.013-.216 1.921.128c.177.013.34.042.492.087.152.05.291.116.41.203a.883.883 0 01.27.33c.066.133.09.29.078.468a1.103 1.103 0 01-.098.426.978.978 0 01-.238.31 1.315 1.315 0 01-.332.2 2.132 2.132 0 01-.422.132c.189.29.344.533.467.728.127.194.28.438.46.715.077.124.151.22.217.277l.196.15.189.074.188.037-.012.211-.008.017zM70.08 2.826l.107-.306.008-.277a1.652 1.652 0 00-.066-.34.79.79 0 00-.163-.293.671.671 0 00-.287-.195 1.047 1.047 0 00-.422-.041l-.414.037.16 1.858.299-.03a1.12 1.12 0 00.504-.144.76.76 0 00.274-.273m.832-.794c.02.219-.008.417-.078.595s-.176.327-.315.451c-.14.124-.295.22-.468.286-.176.066-.36.107-.56.128l-.468.041.11 1.27.05.178.151.108.189.02h.25l.02.211-1.786.158-.02-.211.2-.038.18-.057.12-.125.02-.19-.258-3.032-.045-.182-.148-.112-.225-.037h-.189l-.02-.22 1.9-.165c.386-.033.71.033.968.203.258.165.397.41.426.724m-9.133 1.741c-.082-.244-.218-.41-.402-.504-.184-.095-.406-.1-.651-.013l-.476.166.582 1.712.365-.124a.939.939 0 00.557-.471c.115-.228.123-.48.025-.766zm2.479 2.47l-1.066.368a26.746 26.746 0 00-.967-.748 28.406 28.406 0 00-.905-.63l-.406.141.43 1.266.09.166.173.066.184-.02.217-.055.07.203-1.668.58-.07-.203.185-.087.164-.1.082-.148-.025-.195-.98-2.883-.085-.166-.172-.07-.193.016-.197.042-.065-.203 1.823-.633c.168-.058.332-.095.488-.112.16-.016.311-.008.455.03a.923.923 0 01.377.198c.11.1.192.232.25.401.053.153.078.298.07.43a.894.894 0 01-.103.381 1.255 1.255 0 01-.23.315 2.605 2.605 0 01-.336.285c.283.194.52.356.71.492.188.133.421.294.696.484.119.087.221.145.303.174l.242.062.2-.008.19-.042.065.203h.004zm-6.88 1.316l.553 1.112-2.995 1.763-.107-.182.193-.14.143-.133.054-.17-.058-.174-1.512-2.618-.114-.133-.18-.037-.222.05-.2.078-.107-.182 2.794-1.646.508.881-.192.112a1.466 1.466 0 00-.46-.286c-.196-.078-.348-.095-.458-.05l-.197.096-.254.14-.565.336.836 1.447.405-.24a.905.905 0 00.262-.202l.086-.22-.02-.252-.082-.265.193-.111.823 1.427-.192.112-.205-.228-.205-.145-.258-.025a1.308 1.308 0 00-.283.125l-.406.24.631 1.092c.062.111.123.19.172.244l.172.09.218-.045a2.78 2.78 0 00.332-.178l.22-.128.226-.145.18-.153.103-.161a1.78 1.78 0 00.029-.517 3.265 3.265 0 00-.05-.464l.18-.107.009-.008zm-6.843 3.024a.79.79 0 00-.078-.315l-.147-.236-.242-.244-.3-.153a.692.692 0 00-.343 0 .982.982 0 00-.373.203l-.324.26 1.156 1.453.233-.19c.164-.133.279-.27.34-.402a.754.754 0 00.078-.384m.254-1.126a1.206 1.206 0 01.246 1.092 1.5 1.5 0 01-.23.5 1.983 1.983 0 01-.393.419l-.364.293.79.998.14.12h.184l.168-.083.205-.141.135.165-1.397 1.134-.135-.165.147-.145.119-.15.029-.169-.086-.174-1.885-2.374-.14-.128-.184-.009-.205.095-.16.104-.135-.165 1.487-1.204c.304-.244.607-.373.914-.377a.888.888 0 01.75.364zm-5.376 3.69l-.13.207-.095.265c-.008.083.033.178.123.29.094.111.217.235.373.368l1.389 1.187c.176.153.299.319.369.505s.094.376.077.566c-.02.19-.07.364-.143.526a2.145 2.145 0 01-.774.881 1.503 1.503 0 01-.52.207 1.13 1.13 0 01-.489-.025 1.012 1.012 0 01-.41-.22L43.3 16.284l-.156-.087-.188.025-.177.104-.147.128-.16-.136 1.123-1.34.164.136-.115.178-.082.17v.181l.119.145 1.762 1.506c.086.074.18.14.29.203a.9.9 0 00.357.111.843.843 0 00.406-.07c.14-.058.283-.174.43-.352.144-.17.234-.33.275-.488a.965.965 0 00.02-.443 1.075 1.075 0 00-.143-.351l-.238-.27-1.307-1.116a2.574 2.574 0 00-.438-.31c-.123-.067-.226-.091-.3-.07l-.27.14-.213.182-.16-.136 1.098-1.312.16.137.008-.009zm-2.991 7.405a.966.966 0 01.377-.012c.123.02.25.07.385.149.32.182.52.455.594.815.074.36.013.716-.188 1.071a2.13 2.13 0 01-.775.765l.123.22-.114.207-1.267-.675.123-.21c.177.045.345.074.5.086.156.013.316 0 .476-.029.151-.033.29-.09.418-.178a1.02 1.02 0 00.323-.368c.066-.12.11-.231.131-.339l-.008-.29-.131-.235-.238-.19a.817.817 0 00-.475-.108.88.88 0 00-.496.207c-.106.087-.23.186-.364.302a4.36 4.36 0 01-.365.285 1.312 1.312 0 01-.635.273c-.213.03-.443-.025-.68-.161a1.016 1.016 0 01-.34-.306 1.264 1.264 0 01-.185-.43 1.316 1.316 0 01-.008-.476c.029-.166.082-.319.164-.468.094-.17.205-.306.332-.41a2.43 2.43 0 01.385-.26l-.115-.207.115-.207 1.217.67-.119.212a5.022 5.022 0 00-.471-.1 1.624 1.624 0 00-.447-.012.936.936 0 00-.39.136.9.9 0 00-.306.344.722.722 0 00-.082.509.595.595 0 00.282.393c.16.09.308.128.455.111a.884.884 0 00.434-.178c.132-.09.255-.186.365-.285.115-.095.225-.186.34-.273.103-.079.21-.15.32-.211.11-.062.221-.108.34-.137z" fill="#1D1D1B"/><path d="M61.34 23.213l6.54-2.859 4.425-.302-3.106.654-1.098.79-1.238.054-5.527 1.659.004.004zm10.928 1.58l17.759-2.71-3.582 2.545-1.946-.658-4.04.596-2.45-.162-5.741.385v.004zm-23.54 3.115l16.488-4.153 4.184 1.352-5.516.39-2.155.83-1.61-.103-11.395 1.684h.004zm-2.492-1.113l6.74-2.883 7.602.34-6.229.603-1.503.637-1.172.008-5.438 1.295zm21.078-3.4l4.34-1.77 5.88-5.023 5.314 3.814-3.856-.182-.529-.922-6.502 3.367-4.651.716h.004zm41.315 6.478l-5.687-3.218-1.987-.637-1.598-1.361-3.545-1.324-2.36.633-2.712-2.23-4.688.078-8.527-5.903-4.544 3.64-5.138.323-8.368 3.343-6.482.244-15.026 6.412 6.405-1.138 3.823 1.068 6.958-2.093 2.761 2.176 13.772-1.61-12.026.186 10.85-1.716 5.015 1.87h-.012l2.483.55v-1.183h-.606l3.094-1.345.59.393h1.552v1.034l.951.633h-.61v.712l1.319-.042V27.33h-.709l1.172-.612v-.807h1.553l.877-.455 3.602 1.874h-.71v.786l2.86-1.005 1.939.88h-.385v.485h1.254l5.236 1.41 7.65-.008.004-.004zm-12.8-2.643c.164 0 4.577-1.055 4.577-1.055l1.79.546-6.371.509h.004zm-7.208-1.663l7.159-1.874 3.04 1.141-3.192-.194-7.01.927h.003zm7.167 6.043l1.614.48-13.91.042-.206.074 8.937.447-11.453 1.605-9.26-.72 10.137-.632-7.695-.253-1.327.22-6.052 1.009-4.397-1.022-4.417.02-6.483-.6 13.453-.43-.336-.115-15.284-.02-11.186-.671h70.707l-12.842.567z" fill="#1D1D1B"/><path d="M86.143 27.25v.948h.84v-1.233l-.84.286zm-1.127.948h.824v-.856l-.824.277v.58zm.824.261h-.824v.712h.824v-.712zm1.143 0h-.84v1.067l-1.496-.12v-1.965l2.688-1.13 2.164.94v1.597l-2.163.654h-.353v-1.043z" fill="#1D1D1B"/></svg>