<svg width="190" height="22" fill="none" xmlns="http://www.w3.org/2000/svg"><mask id="a" style="mask-type:luminance" maskUnits="userSpaceOnUse" x="0" y="0" width="190" height="22"><path d="M189.937.981H.785v20.388h189.152V.98z" fill="#fff"/></mask><g mask="url(#a)" fill="#0C0A05"><path d="M17.509 19.744c-.73.57-3.152 1.625-6.07 1.625-6.162 0-10.654-3.73-10.654-10.194C.785 4.71 5.277.98 11.73.98c2.509 0 4.757.596 6.33 1.308-.291.512-.496 1.624-.61 2.22l-.174.058c-.816-.88-2.8-2.536-5.546-2.536-4.583.004-8.086 2.821-8.086 9.144 0 6.322 3.503 9.14 8.086 9.14 2.773 0 4.817-1.54 5.925-2.364l.118.116-.264 1.677zM39.953 8.728c0-2.447-.119-4.926-.233-7.377.497.084.962.142 1.432.142s.935-.058 1.432-.142c-.118 2.447-.232 4.925-.232 7.377v4.899c0 2.447.118 4.925.232 7.373a8.498 8.498 0 00-1.432-.143c-.47 0-.935.058-1.432.143.119-2.448.233-4.926.233-7.373v-2.563c-2.044-.027-4.06-.058-6.103-.058s-4.059.027-6.102.058v2.563c0 2.447.119 4.925.233 7.373a8.496 8.496 0 00-1.432-.143c-.47 0-.935.058-1.428.143.119-2.448.233-4.926.233-7.373v-4.9c0-2.446-.114-4.925-.233-7.376.497.084.962.142 1.428.142.465 0 .935-.058 1.432-.142-.119 2.447-.233 4.925-.233 7.377v.997c2.043.03 4.06.084 6.102.084 2.044 0 4.06-.058 6.103-.084v-.997zM59.116.981c2.86 6.607 7.238 16.97 8.784 20.018a9.567 9.567 0 00-1.546-.142 9.63 9.63 0 00-1.546.142c-.556-1.966-1.956-5.094-3.005-7.63-1.255-.027-2.54-.059-3.822-.059-1.195 0-2.363.032-3.562.058-1.227 2.933-2.335 5.838-2.832 7.631a4.951 4.951 0 00-1.081-.142c-.352 0-.703.058-1.081.142 3.124-6.665 6.161-13.3 9.14-20.018h.556-.005zm-.962 3.844l-3.183 7.23c1.021 0 2.13.059 3.151.059 1.081 0 2.19-.027 3.27-.058l-3.238-7.23zm16.83 3.903c0-2.447-.119-4.926-.233-7.377a43.72 43.72 0 003.325.142c1.108 0 2.216-.142 3.33-.142 3.296 0 6.07 1.112 6.07 4.498 0 3.675-3.768 5.153-5.984 5.437 1.432 1.736 6.303 7.858 8 9.71a12.221 12.221 0 00-1.752-.143c-.584 0-1.136.058-1.692.142-1.168-1.74-5.049-6.977-7.557-9.455h-1.109v2.078c0 2.447.12 4.926.233 7.373a8.495 8.495 0 00-1.432-.143c-.47 0-.935.058-1.428.143.12-2.447.233-4.926.233-7.373V8.719l-.004.009zm2.394 1.624c.525.116 1.195.142 1.957.142 2.394 0 5.573-.97 5.573-4.356 0-2.99-2.54-3.728-4.525-3.728-1.34 0-2.216.084-2.832.142-.086 2.078-.173 4.13-.173 6.18v1.624-.004zM99.092.981c2.654 5.353 5.4 10.367 8.378 15.689 1.167-2.22 5.806-10.42 8.665-15.689h.379c.875 7.288 1.459 13.495 2.394 20.018a7.526 7.526 0 00-1.373-.142c-.469 0-.903.058-1.373.142-.41-5.094-.816-9.824-1.432-14.692h-.059c-2.654 4.756-5.341 9.424-7.648 14.55h-.265c-2.276-4.726-4.962-9.624-7.502-14.55h-.06c-.556 4.699-1.372 11.475-1.4 14.692a4.253 4.253 0 00-1.021-.142c-.351 0-.67.058-1.022.142 1.03-6.291 2.198-13.98 2.841-20.018h.498zm35.811 0c2.859 6.607 7.238 16.97 8.784 20.018a9.575 9.575 0 00-1.546-.142c-.525 0-1.022.058-1.547.142-.556-1.966-1.956-5.094-3.005-7.63-1.254-.027-2.54-.059-3.827-.059-1.194 0-2.362.032-3.561.058-1.227 2.933-2.336 5.838-2.833 7.631a4.942 4.942 0 00-1.081-.142 4.97 4.97 0 00-1.08.142A989.34 989.34 0 00134.346.981h.557zm-.963 3.844l-3.183 7.23c1.022 0 2.13.059 3.151.059 1.081 0 2.19-.027 3.27-.058l-3.238-7.23zm33.262 16.544c-4.438-5.095-9.746-10.563-14.741-15.747-.031 1.054-.086 2.763-.086 5.78 0 2.447.118 8.454.264 9.593a4.036 4.036 0 00-1.021-.143 4.95 4.95 0 00-1.081.143c.232-1.34.611-8.628.611-12.388s0-6.349-.087-7.63h.466c4.756 5.04 11.205 11.902 14.767 15.404 0-5.095 0-10.648-.232-15.035.319.084.67.142.994.142.324 0 .616-.058.935-.142-.174 1.677-.465 7.32-.465 9.54 0 2.905.059 9.197.086 10.478h-.41v.005zm14.01-12.641c0-1.967-.027-3.929-.087-5.896-2.011 0-4.611.116-6.243.312.086-.285.146-.597.146-.912 0-.285-.06-.57-.146-.881 2.508.084 5.021.142 7.529.142 2.509 0 5.022-.058 7.53-.142a3.3 3.3 0 00-.146.912c0 .284.059.596.146.88-1.633-.2-4.232-.31-6.248-.31a196.449 196.449 0 00-.087 5.895v4.899c0 2.447.119 4.925.233 7.373a8.491 8.491 0 00-1.432-.143c-.47 0-.935.058-1.432.143.118-2.448.232-4.926.232-7.373v-4.9h.005z"/></g></svg>