<svg width="123" height="22" fill="none" xmlns="http://www.w3.org/2000/svg"><path fill-rule="evenodd" clip-rule="evenodd" d="M115.976 14.514l-1.579-3.925-1.579 3.925h3.158zM78.171 1.377h3.97v19.26h-3.97V1.377zm-77.846 0h3.97v15.47h7.39v3.79H.324V1.377zm98.724 11.87V1.378h3.969v19.26h-3.01l-9.084-11.91v11.91h-3.97V1.377h3.037l9.058 11.87zm-35.535-2.952l-6.802-8.918h-3.036v19.26h3.97V8.722l5.874 7.703 5.875-7.697v11.91h3.97V1.377h-3.037L63.52 10.3l-.006-.006zM39.747 20.63v-8.45L32.824 1.376h4.609l4.308 7.051 4.309-7.05h4.609l-6.93 10.809v8.45h-3.97l-.012-.006zM16.53 11.004c0 3.56 2.902 6.226 6.411 6.226 3.51 0 6.412-2.665 6.412-6.226 0-3.56-2.902-6.226-6.412-6.226-3.509 0-6.411 2.666-6.411 6.226zm-3.906 0c0 5.734 4.667 10.017 10.317 10.017 5.651 0 10.318-4.283 10.318-10.017C33.259 5.27 28.586.981 22.94.981c-5.644 0-10.317 4.283-10.317 10.017v.006zm98.749 7.121l-1.016 2.506h-4.283l8.323-19.65 8.323 19.65h-4.29l-1.01-2.506h-6.053.006z" fill="#1D1D1B"/></svg>