<svg width="20" height="20" fill="none" xmlns="http://www.w3.org/2000/svg"><path d="M13.952 12.83l-.506.534s-1.203 1.265-4.486-2.191C5.676 7.717 6.88 6.451 6.88 6.451l.318-.337c.785-.826.86-2.153.174-3.122l-1.4-1.98c-.849-1.2-2.488-1.36-3.46-.336L.768 2.512C.287 3.02-.036 3.676.003 4.406c.1 1.867.898 5.882 5.347 10.567 4.719 4.967 9.146 5.165 10.956 4.986.574-.056 1.072-.365 1.473-.788l1.577-1.662c1.067-1.12.767-3.044-.597-3.829l-2.123-1.222c-.895-.514-1.984-.364-2.684.373z" fill="#DAC08E"/></svg>